<svg xmlns="http://www.w3.org/2000/svg" viewBox="0 0 28.7 22.9"><path d="m6.7 0c-1.9 0-3.7.4-4.9 1.2-1.1.7-1.8 1.6-1.8 2.6 0 2.1 3 3.8 6.7 3.8 3.7 0 6.7-1.7 6.7-3.8 0-1.1-.8-2.1-2.1-2.8-1.2-.6-2.8-1-4.6-1m15.3 5.1c-1.9 0-3.7.5-4.9 1.2-1.1.7-1.8 1.6-1.8 2.6 0 2.1 3 3.8 6.7 3.8 3.7 0 6.7-1.7 6.7-3.8 0-1.1-.8-2.1-2.1-2.8-1.2-.6-2.8-1-4.6-1zm-22 1.2v2.6c0 2.1 3 3.8 6.7 3.8 3.7 0 6.7-1.7 6.7-3.8v-.2-2.3c0 2-3 3.7-6.7 3.7-3.7 0-6.7-1.7-6.7-3.8m0 5.1v2.6c0 2.1 3 3.8 6.7 3.8 3.7 0 6.7-1.7 6.7-3.8v-.2-2.3c0 2-3 3.7-6.7 3.7-3.7 0-6.7-1.7-6.7-3.8m15.3 0v2.6c0 2.1 3 3.8 6.7 3.8 3.7 0 6.7-1.7 6.7-3.8v-.2-2.3c.1 2-2.9 3.7-6.7 3.7-3.7 0-6.7-1.7-6.7-3.8m-15.3 5.1v2.6c0 2.1 3 3.8 6.7 3.8 3.7 0 6.7-1.7 6.7-3.8v-2.6c0 2.1-3 3.8-6.7 3.8-3.7 0-6.7-1.7-6.7-3.8m15.3 0v2.6c0 2.1 3 3.8 6.7 3.8 3.7 0 6.7-1.7 6.7-3.8v-.2-2.3c.1 2-2.9 3.7-6.7 3.7-3.7 0-6.7-1.7-6.7-3.8" fill="#fab51d"/></svg>